<?xml version="1.0" encoding="utf-8"?>
<!-- Generator: Adobe Illustrator 25.1.0, SVG Export Plug-In . SVG Version: 6.00 Build 0)  -->
<svg version="1.1" id="Layer_1" xmlns="http://www.w3.org/2000/svg" xmlns:xlink="http://www.w3.org/1999/xlink" x="0px" y="0px"
	 viewBox="0 0 512 512" style="enable-background:new 0 0 512 512;" xml:space="preserve">
<style type="text/css">
	.st0{fill:#949495;}
	.st1{fill:#29A56C;}
</style>
<path class="st0" d="M413.2,113H183c-48.6,0-78.2-31.4-81.9-35.5C84.1,48.2,60.3,22.7,31,3.4C21.8-2.7,9.4-0.2,3.3,9
	C-2.8,18.3-0.2,30.7,9,36.7C60.3,70.6,91,127.5,91,189v123c0,66.2,53.8,120,120,120h155c55.1,0,103-37.3,116.4-90.8l26.5-105.7
	C525.2,174.9,476.1,111.9,413.2,113z M470,225.8l-26.5,105.7c-8.9,35.6-40.8,60.5-77.6,60.5H211c-44.1,0-80-35.9-80-80V189
	c0-16.1-1.7-31.9-5-47.3v0c15.9,6.6,35.1,11.3,57,11.3h230.3C450.6,152.3,479.8,189.8,470,225.8z"/>
<path class="st0" d="M201,487c0-13.8-11.2-25-25-25c-33.2,1.3-33.1,48.7,0,50C189.8,512,201,500.8,201,487L201,487z"/>
<path class="st0" d="M399.9,487c0-13.8-11.2-25-25-25c-33.2,1.3-33.1,48.7,0,50C388.7,512,399.9,500.8,399.9,487L399.9,487z"/>
<path class="st1" d="M433.2,213c0-11-9-20-20-20H191c-26.5,1.1-26.5,38.9,0,40h222.3C424.3,233,433.2,224.1,433.2,213z"/>
</svg>
