<?xml version="1.0" encoding="utf-8"?>
<!-- Generator: Adobe Illustrator 25.1.0, SVG Export Plug-In . SVG Version: 6.00 Build 0)  -->
<svg version="1.1" id="Layer_1" xmlns="http://www.w3.org/2000/svg" xmlns:xlink="http://www.w3.org/1999/xlink" x="0px" y="0px"
	 viewBox="0 0 512 512" style="enable-background:new 0 0 512 512;" xml:space="preserve">
<style type="text/css">
	.st0{fill:#949495;}
	.st1{fill:#29A56C;}
</style>
<g>
	<polygon class="st0" points="20,512 20,512 20,512 	"/>
	<path class="st0" d="M437.9,75.5C276.7-86.5-1.6,29.7,0,258.4L0,492c0,8.1,4.9,15.4,12.3,18.5c2.5,1,5.1,1.5,7.6,1.5
		c5.2,0,10.3-2,14.1-5.9l3.9-3.9c27.3-27.3,68.4-34.1,102.4-17.1c35.6,17.8,74,26.9,114.3,26.9C482.3,512.2,597.4,237.4,437.9,75.5z
		 M255,472c-34.1,0-66.6-7.6-96.6-22.6c-18.2-9.1-37.7-13.5-57.1-13.5c-21.2,0-42.3,5.3-61.3,15.5l0-193c0-0.1,0-0.1,0-0.2
		C39,64.9,273-33,409.5,103.7C544.1,238.8,446.2,472.3,255,472z"/>
</g>
<path class="st1" d="M196,256c0,13.8-11.2,25-25,25c-33.2-1.3-33.1-48.7,0-50C184.8,231,196,242.2,196,256z"/>
<path class="st1" d="M257,231c-13.8,0-25,11.2-25,25c1.3,33.2,48.7,33.1,50,0C282,242.2,270.8,231,257,231z"/>
<path class="st1" d="M343,231c-13.8,0-25,11.2-25,25c1.3,33.2,48.7,33.1,50,0C368,242.2,356.8,231,343,231z"/>
</svg>
