<?xml version="1.0" encoding="utf-8"?>
<!-- Generator: Adobe Illustrator 25.1.0, SVG Export Plug-In . SVG Version: 6.00 Build 0)  -->
<svg version="1.1" id="Layer_1" xmlns="http://www.w3.org/2000/svg" xmlns:xlink="http://www.w3.org/1999/xlink" x="0px" y="0px"
	 viewBox="0 0 512 512" style="enable-background:new 0 0 512 512;" xml:space="preserve">
<style type="text/css">
	.st0{fill:#949495;}
	.st1{fill:#29A56C;}
</style>
<path class="st0" d="M437,74.7c-95.3-99.3-266.7-99.3-362,0c-160.5,160.8-46.2,436.8,181,437C483.2,511.5,597.5,235.6,437,74.7z
	 M40,255.8c0-119.1,96.9-216,216-216c119.1,0,216,96.9,216,216C460.2,542.2,51.9,542.3,40,255.8z"/>
<path class="st1" d="M349.1,320.6L286,257.4c0.6-9.3-3.4-18.3-10-24c0-0.2,0-0.4,0-0.6v-117c-1.1-26.5-39-26.5-40,0v117
	c0,0.2,0,0.4,0,0.6c-20.9,18.7-6.7,53.8,21.7,52.3l63.2,63.2c7.8,7.8,20.5,7.8,28.3,0C357,341.1,357,328.4,349.1,320.6L349.1,320.6z
	"/>
</svg>
