<?xml version="1.0" encoding="utf-8"?>
<!-- Generator: Adobe Illustrator 25.1.0, SVG Export Plug-In . SVG Version: 6.00 Build 0)  -->
<svg version="1.1" id="Layer_1" xmlns="http://www.w3.org/2000/svg" xmlns:xlink="http://www.w3.org/1999/xlink" x="0px" y="0px"
	 viewBox="0 0 512 512" style="enable-background:new 0 0 512 512;" xml:space="preserve">
<style type="text/css">
	.st0{fill:#949495;}
	.st1{fill:#29A56C;}
</style>
<path class="st0" d="M492,141.1c11,0,20-9,20-20v-21C512,44.9,467.1,0,411.9,0c0,0-313.5,0-314.2,0.1c-26.4,0.9-51.7,12.2-70,31.4
	C8.9,51.1-0.8,76.7,0.1,103.5C0.1,104,0,391.9,0,391.9C0,458.1,53.9,512,120.1,512h291.8c55.2,0,100.1-44.9,100.1-100.1V260.1
	c0-55.2-44.9-100.1-100.1-100.1H100c-32.1,0-58.4-25.1-59.9-57.1c-0.8-16.3,5.1-31.8,16.5-43.8C68.2,47,84.4,40.1,101.2,40.1
	c0.6,0,310.7-0.1,310.7-0.1C445,40,472,66.9,472,100.1v21C472,132.1,480.9,141.1,492,141.1z M40,180.1c16.7,12.5,37.5,19.9,60,19.9
	h311.9C445,200,472,227,472,260.1v151.8c0,33.1-26.9,60.1-60.1,60.1H120.1C75.9,472,40,436.1,40,391.9V180.1z"/>
<path class="st1" d="M432,336c0,13.8-11.2,25-25,25c-33.2-1.3-33.1-48.7,0-50C420.8,311,432,322.2,432,336z"/>
<path class="st1" d="M432,100.1c0-11-9-20-20-20H100c-26.5,1.1-26.5,38.9,0,40h312C423,120.1,432,111.1,432,100.1z"/>
</svg>
