<svg width="512" height="512" xmlns="http://www.w3.org/2000/svg" xmlns:xlink="http://www.w3.org/1999/xlink" overflow="hidden"><defs><clipPath id="clip0"><rect x="384" y="104" width="512" height="512"/></clipPath></defs><g clip-path="url(#clip0)" transform="translate(-384 -104)"><path d="M640 104C498.6 104 384 218.6 384 360 384 501.4 498.6 616 640 616 781.4 616 896 501.4 896 360 896 218.6 781.4 104 640 104ZM616 256C616 242.8 626.8 232 640 232 653.2 232 664 242.75 664 256L664 384C664 397.25 653.25 408 640 408 626.75 408 616 397.3 616 384L616 256ZM640 504C622.64 504 608.56 489.92 608.56 472.56 608.56 455.2 622.63 441.12 640 441.12 657.37 441.12 671.44 455.2 671.44 472.56 671.4 489.9 657.4 504 640 504Z" fill="#C00000"/></g></svg>