<svg xmlns="http://www.w3.org/2000/svg" viewBox="0 0 447.82 82.33"><defs><style>.cls-1{fill:#27a56c;}.cls-2{fill:#333;}</style></defs><g id="Layer_2" data-name="Layer 2"><g id="Layer_1-2" data-name="Layer 1"><path class="cls-1" d="M105.08,0V29.41H92.93V0H69.43l0,48.22L62.46,42c-8.24-7.39-8.25-7.39-8.65-7.24-.11,0-.14.06-9.14,7.17l-8,6.35c0-1.89,0-6.05,0-12.06V23.5H57V0H0V23.5H13.11V82.11H35.22l9.6-7.59,9-7.15c1,.91,4.12,3.68,8.07,7.23l8.59,7.72h22.4V52.91h12.15V82.33h23.5V0ZM89.47,49.4V78.81H71.85L63.2,71.08c-9.08-8.13-9.09-8.13-9.5-8-.11,0-.14.06-10,7.87L34.06,78.6H16.62V20H3.46V3.51h50V20H33.09v17.4c0,17.08,0,17.08.38,17.29l.31.17.3-.19s.1,0,10.14-8L53.91,39c1,.91,4.3,3.82,8.83,7.88L72.92,56l0-52.5H89.47V32.93H108.6V3.51h16.52v75.3H108.6V49.4Z"/><path class="cls-2" d="M142.77,6.46h19.15v3h-7.71V34.73h-3.69V9.46h-7.75Z"/><path class="cls-2" d="M184.55,21.91h-14.4V34.73h-3.69V6.46h3.69V18.87h14.4V6.46h3.69V34.73h-3.69Z"/><path class="cls-2" d="M209.69,9.46H198.18v9.45h10.3v3h-10.3v9.74h11.51v3h-15.2V6.42h15.2Z"/><path class="cls-2" d="M223.93,6.46h3.93l6.17,24,6.81-24H245l6.49,23.89,6.2-23.89h4l-8.19,28.27h-4.14L242.75,12l-6.81,22.76-4.1,0Z"/><path class="cls-2" d="M283.79,21.91H269.4V34.73h-3.69V6.46h3.69V18.87h14.39V6.46h3.7V34.73h-3.7Z"/><path class="cls-2" d="M306.55,35c-7.95,0-14.2-6-14.2-14.44s6.25-14.44,14.2-14.44,14.19,6,14.19,14.44S314.54,35,306.55,35Zm0-3.2c6,0,10.42-4.34,10.42-11.24S312.51,9.34,306.55,9.34s-10.43,4.3-10.43,11.23S300.59,31.81,306.55,31.81Z"/><path class="cls-2" d="M329.3,6.46V31.73h9.9v3H325.61V6.46Z"/><path class="cls-2" d="M358.34,9.46H346.82v9.45h10.31v3H346.82v9.74h11.52v3H343.13V6.42h15.21Z"/><path class="cls-2" d="M372.9,35c-5.67,0-9.69-3.16-9.77-7.83h3.93c.25,2.36,1.91,4.71,5.84,4.71,3.57,0,5.68-2,5.68-4.71,0-7.62-15.29-2.75-15.29-13.26,0-4.66,3.77-7.83,9.37-7.83,5.39,0,8.92,3,9.37,7.26H378c-.24-1.9-2-4-5.47-4.09-3-.08-5.44,1.5-5.44,4.54,0,7.3,15.25,2.76,15.25,13.22C382.31,31,379,35,372.9,35Z"/><path class="cls-2" d="M404.46,28.44H392.13l-2.27,6.29H386L396.18,6.62h4.26l10.18,28.11h-3.89Zm-6.17-17.28-5.11,14.28H403.4Z"/><path class="cls-2" d="M418.78,6.46V31.73h9.89v3H415.08V6.46Z"/><path class="cls-2" d="M447.82,9.46H436.3v9.45h10.3v3H436.3v9.74h11.52v3H432.61V6.42h15.21Z"/><path class="cls-2" d="M160.86,63.13h-14.4V76h-3.69V47.68h3.69V60.09h14.4V47.68h3.69V76h-3.69Z"/><path class="cls-2" d="M183.62,76.23c-8,0-14.2-6-14.2-14.44s6.25-14.43,14.2-14.43,14.19,6,14.19,14.43S191.61,76.23,183.62,76.23Zm0-3.2c6,0,10.42-4.34,10.42-11.24s-4.46-11.23-10.42-11.23-10.43,4.3-10.43,11.23S177.65,73,183.62,73Z"/><path class="cls-2" d="M202.6,47.68h3.69V65.57c0,5.19,2.8,7.42,7,7.42s6.94-2.23,6.94-7.42V47.68h3.69V65.53c0,7.34-4.83,10.7-10.67,10.7s-10.62-3.36-10.62-10.7Z"/><path class="cls-2" d="M239,76.23c-5.68,0-9.7-3.16-9.78-7.82h3.94c.24,2.35,1.9,4.7,5.84,4.7,3.57,0,5.68-2,5.68-4.7,0-7.63-15.29-2.76-15.29-13.27,0-4.66,3.77-7.83,9.37-7.83,5.39,0,8.92,3,9.36,7.26h-4c-.24-1.9-2-4-5.48-4.09-3-.08-5.43,1.5-5.43,4.54,0,7.3,15.25,2.76,15.25,13.22C248.43,72.26,245.14,76.23,239,76.23Z"/><path class="cls-2" d="M269.07,50.68H257.55v9.45h10.31v3H257.55v9.74h11.52v3H253.86V47.64h15.21Z"/><path class="cls-2" d="M285.5,47.68h3.69V76H285.5Z"/><path class="cls-2" d="M317.7,47.64V76H314L299.17,53.44V76h-3.69V47.64h3.69L314,70.11V47.64Z"/><path class="cls-2" d="M336.72,47.31c6.13,0,11,3.09,13.1,8.56H345.4c-1.54-3.4-4.54-5.31-8.68-5.31-5.92,0-10.34,4.3-10.34,11.23S330.8,73,336.72,73c4.14,0,7.14-1.91,8.68-5.27h4.42c-2.1,5.43-7,8.47-13.1,8.47-7.9,0-14.11-5.92-14.11-14.4S328.82,47.31,336.72,47.31Z"/><path class="cls-2" d="M356.48,76.19a2.52,2.52,0,1,1,2.43-2.51A2.48,2.48,0,0,1,356.48,76.19Z"/></g></g></svg>